<?xml version="1.0" encoding="UTF-8" standalone="no"?>
<!DOCTYPE svg PUBLIC "-//W3C//DTD SVG 1.1//EN"
 "http://www.w3.org/Graphics/SVG/1.1/DTD/svg11.dtd">
<!-- Generated by graphviz version 2.42.4 (0)
 -->
<!-- Title: G Pages: 1 -->
<svg width="1309pt" height="220pt"
 viewBox="0.00 0.00 1308.80 220.11" xmlns="http://www.w3.org/2000/svg" xmlns:xlink="http://www.w3.org/1999/xlink">
<g id="graph0" class="graph" transform="scale(1 1) rotate(0) translate(14.4 205.71)">
<title>G</title>
<!-- M -->
<g id="node1" class="node">
<title>M</title>
<path fill="white" stroke="black" d="M61,-107.18C61,-107.18 12,-107.18 12,-107.18 6,-107.18 0,-101.18 0,-95.18 0,-95.18 0,-83.18 0,-83.18 0,-77.18 6,-71.18 12,-71.18 12,-71.18 61,-71.18 61,-71.18 67,-71.18 73,-77.18 73,-83.18 73,-83.18 73,-95.18 73,-95.18 73,-101.18 67,-107.18 61,-107.18"/>
<text text-anchor="middle" x="36.5" y="-86.98" font-family="Arial" font-size="9.00">Message/task</text>
</g>
<!-- S -->
<g id="node2" class="node">
<title>S</title>
<path fill="white" stroke="black" d="M165,-107.18C165,-107.18 121,-107.18 121,-107.18 115,-107.18 109,-101.18 109,-95.18 109,-95.18 109,-83.18 109,-83.18 109,-77.18 115,-71.18 121,-71.18 121,-71.18 165,-71.18 165,-71.18 171,-71.18 177,-77.18 177,-83.18 177,-83.18 177,-95.18 177,-95.18 177,-101.18 171,-107.18 165,-107.18"/>
<text text-anchor="middle" x="143" y="-86.98" font-family="Arial" font-size="9.00">Client scope</text>
</g>
<!-- M&#45;&gt;S -->
<g id="edge1" class="edge">
<title>M&#45;&gt;S</title>
<path fill="none" stroke="black" d="M73.17,-89.18C81.41,-89.18 90.26,-89.18 98.78,-89.18"/>
<polygon fill="black" stroke="black" points="98.95,-92.68 108.95,-89.18 98.95,-85.68 98.95,-92.68"/>
</g>
<!-- B -->
<g id="node3" class="node">
<title>B</title>
<path fill="white" stroke="black" d="M260,-107.18C260,-107.18 225,-107.18 225,-107.18 219,-107.18 213,-101.18 213,-95.18 213,-95.18 213,-83.18 213,-83.18 213,-77.18 219,-71.18 225,-71.18 225,-71.18 260,-71.18 260,-71.18 266,-71.18 272,-77.18 272,-83.18 272,-83.18 272,-95.18 272,-95.18 272,-101.18 266,-107.18 260,-107.18"/>
<text text-anchor="middle" x="242.5" y="-86.98" font-family="Arial" font-size="9.00">Exact brief</text>
</g>
<!-- S&#45;&gt;B -->
<g id="edge2" class="edge">
<title>S&#45;&gt;B</title>
<path fill="none" stroke="black" d="M177.01,-89.18C185.26,-89.18 194.18,-89.18 202.68,-89.18"/>
<polygon fill="black" stroke="black" points="202.77,-92.68 212.77,-89.18 202.77,-85.68 202.77,-92.68"/>
</g>
<!-- C -->
<g id="node5" class="node">
<title>C</title>
<path fill="white" stroke="black" d="M366,-153.18C366,-153.18 320,-153.18 320,-153.18 314,-153.18 308,-147.18 308,-141.18 308,-141.18 308,-129.18 308,-129.18 308,-123.18 314,-117.18 320,-117.18 320,-117.18 366,-117.18 366,-117.18 372,-117.18 378,-123.18 378,-129.18 378,-129.18 378,-141.18 378,-141.18 378,-147.18 372,-153.18 366,-153.18"/>
<text text-anchor="middle" x="343" y="-132.98" font-family="Arial" font-size="9.00">Context pack</text>
</g>
<!-- B&#45;&gt;C -->
<g id="edge4" class="edge">
<title>B&#45;&gt;C</title>
<path fill="none" stroke="black" d="M272.26,-102.61C280.52,-106.46 289.71,-110.76 298.65,-114.93"/>
<polygon fill="black" stroke="black" points="297.27,-118.15 307.81,-119.21 300.23,-111.81 297.27,-118.15"/>
</g>
<!-- Q -->
<g id="node9" class="node">
<title>Q</title>
<path fill="white" stroke="black" d="M875,-144.18C875,-144.18 793,-144.18 793,-144.18 787,-144.18 781,-138.18 781,-132.18 781,-132.18 781,-120.18 781,-120.18 781,-114.18 787,-108.18 793,-108.18 793,-108.18 875,-108.18 875,-108.18 881,-108.18 887,-114.18 887,-120.18 887,-120.18 887,-132.18 887,-132.18 887,-138.18 881,-144.18 875,-144.18"/>
<text text-anchor="middle" x="834" y="-123.98" font-family="Arial" font-size="9.00">Source/RTL/brand QA</text>
</g>
<!-- B&#45;&gt;Q -->
<g id="edge12" class="edge">
<title>B&#45;&gt;Q</title>
<path fill="none" stroke="black" d="M272.01,-89.18C311.2,-89.18 383.95,-89.18 446,-89.18 446,-89.18 446,-89.18 564,-89.18 635.56,-89.18 716.84,-102.19 771.15,-112.78"/>
<polygon fill="black" stroke="black" points="770.48,-116.21 780.97,-114.72 771.84,-109.35 770.48,-116.21"/>
</g>
<!-- D -->
<g id="node4" class="node">
<title>D</title>
<path fill="white" stroke="black" d="M1268,-121.18C1268,-121.18 1230,-121.18 1230,-121.18 1224,-121.18 1218,-115.18 1218,-109.18 1218,-109.18 1218,-97.18 1218,-97.18 1218,-91.18 1224,-85.18 1230,-85.18 1230,-85.18 1268,-85.18 1268,-85.18 1274,-85.18 1280,-91.18 1280,-97.18 1280,-97.18 1280,-109.18 1280,-109.18 1280,-115.18 1274,-121.18 1268,-121.18"/>
<text text-anchor="middle" x="1249" y="-100.98" font-family="Arial" font-size="9.00">Client DNA</text>
</g>
<!-- D&#45;&gt;B -->
<g id="edge3" class="edge">
<title>D&#45;&gt;B</title>
<path fill="none" stroke="black" d="M1238.1,-84.93C1227.06,-66.59 1207.36,-39.22 1182,-26.18 1096.5,17.8 1062.65,-7.18 966.5,-7.18 446,-7.18 446,-7.18 446,-7.18 383.5,-7.18 317.55,-41.16 278.5,-65.37"/>
<polygon fill="black" stroke="black" points="276.21,-62.67 269.64,-70.98 279.96,-68.58 276.21,-62.67"/>
</g>
<!-- D&#45;&gt;C -->
<g id="edge5" class="edge">
<title>D&#45;&gt;C</title>
<path fill="none" stroke="black" d="M1229.7,-121.32C1217.27,-132.56 1199.9,-146.31 1182,-154.18 1093.03,-193.27 1063.68,-191.18 966.5,-191.18 562,-191.18 562,-191.18 562,-191.18 499.88,-191.18 430.84,-169.58 387.44,-153.21"/>
<polygon fill="black" stroke="black" points="388.63,-149.92 378.04,-149.6 386.12,-156.46 388.63,-149.92"/>
</g>
<!-- D&#45;&gt;Q -->
<g id="edge13" class="edge">
<title>D&#45;&gt;Q</title>
<path fill="none" stroke="black" d="M1217.78,-120.78C1206.87,-126.19 1194.23,-131.45 1182,-134.18 1084.32,-155.98 967.34,-146.12 897.2,-136.51"/>
<polygon fill="black" stroke="black" points="897.6,-133.03 887.21,-135.1 896.62,-139.97 897.6,-133.03"/>
</g>
<!-- P -->
<g id="node6" class="node">
<title>P</title>
<path fill="white" stroke="black" d="M468,-153.18C468,-153.18 426,-153.18 426,-153.18 420,-153.18 414,-147.18 414,-141.18 414,-141.18 414,-129.18 414,-129.18 414,-123.18 420,-117.18 426,-117.18 426,-117.18 468,-117.18 468,-117.18 474,-117.18 480,-123.18 480,-129.18 480,-129.18 480,-141.18 480,-141.18 480,-147.18 474,-153.18 468,-153.18"/>
<text text-anchor="middle" x="447" y="-132.98" font-family="Arial" font-size="9.00">Design plan</text>
</g>
<!-- C&#45;&gt;P -->
<g id="edge6" class="edge">
<title>C&#45;&gt;P</title>
<path fill="none" stroke="black" d="M378.25,-135.18C386.4,-135.18 395.18,-135.18 403.64,-135.18"/>
<polygon fill="black" stroke="black" points="403.74,-138.68 413.74,-135.18 403.74,-131.68 403.74,-138.68"/>
</g>
<!-- A -->
<g id="node7" class="node">
<title>A</title>
<path fill="white" stroke="black" d="M598,-153.18C598,-153.18 528,-153.18 528,-153.18 522,-153.18 516,-147.18 516,-141.18 516,-141.18 516,-129.18 516,-129.18 516,-123.18 522,-117.18 528,-117.18 528,-117.18 598,-117.18 598,-117.18 604,-117.18 610,-123.18 610,-129.18 610,-129.18 610,-141.18 610,-141.18 610,-147.18 604,-153.18 598,-153.18"/>
<text text-anchor="middle" x="563" y="-137.98" font-family="Arial" font-size="9.00">Private reference +</text>
<text text-anchor="middle" x="563" y="-127.98" font-family="Arial" font-size="9.00">shipping assets</text>
</g>
<!-- P&#45;&gt;A -->
<g id="edge7" class="edge">
<title>P&#45;&gt;A</title>
<path fill="none" stroke="black" d="M480.06,-135.18C488.01,-135.18 496.77,-135.18 505.51,-135.18"/>
<polygon fill="black" stroke="black" points="505.72,-138.68 515.72,-135.18 505.72,-131.68 505.72,-138.68"/>
</g>
<!-- E -->
<g id="node8" class="node">
<title>E</title>
<path fill="white" stroke="black" d="M733,-153.18C733,-153.18 658,-153.18 658,-153.18 652,-153.18 646,-147.18 646,-141.18 646,-141.18 646,-129.18 646,-129.18 646,-123.18 652,-117.18 658,-117.18 658,-117.18 733,-117.18 733,-117.18 739,-117.18 745,-123.18 745,-129.18 745,-129.18 745,-141.18 745,-141.18 745,-147.18 739,-153.18 733,-153.18"/>
<text text-anchor="middle" x="695.5" y="-132.98" font-family="Arial" font-size="9.00">Editable .hyc source</text>
</g>
<!-- A&#45;&gt;E -->
<g id="edge8" class="edge">
<title>A&#45;&gt;E</title>
<path fill="none" stroke="black" d="M610.01,-135.18C618.34,-135.18 627.14,-135.18 635.78,-135.18"/>
<polygon fill="black" stroke="black" points="635.81,-138.68 645.81,-135.18 635.81,-131.68 635.81,-138.68"/>
</g>
<!-- E&#45;&gt;Q -->
<g id="edge9" class="edge">
<title>E&#45;&gt;Q</title>
<path fill="none" stroke="black" d="M745.01,-131.98C753.38,-131.43 762.19,-130.85 770.86,-130.28"/>
<polygon fill="black" stroke="black" points="771.2,-133.76 780.94,-129.61 770.74,-126.78 771.2,-133.76"/>
</g>
<!-- H -->
<g id="node10" class="node">
<title>H</title>
<path fill="white" stroke="black" d="M996,-125.18C996,-125.18 935,-125.18 935,-125.18 929,-125.18 923,-119.18 923,-113.18 923,-113.18 923,-101.18 923,-101.18 923,-95.18 929,-89.18 935,-89.18 935,-89.18 996,-89.18 996,-89.18 1002,-89.18 1008,-95.18 1008,-101.18 1008,-101.18 1008,-113.18 1008,-113.18 1008,-119.18 1002,-125.18 996,-125.18"/>
<text text-anchor="middle" x="965.5" y="-104.98" font-family="Arial" font-size="9.00">Human approval</text>
</g>
<!-- Q&#45;&gt;H -->
<g id="edge10" class="edge">
<title>Q&#45;&gt;H</title>
<path fill="none" stroke="black" d="M887.3,-118.51C895.68,-117.27 904.36,-116 912.73,-114.77"/>
<polygon fill="black" stroke="black" points="913.37,-118.22 922.75,-113.3 912.35,-111.29 913.37,-118.22"/>
</g>
<!-- O -->
<g id="node11" class="node">
<title>O</title>
<path fill="white" stroke="black" d="M1170,-125.18C1170,-125.18 1056,-125.18 1056,-125.18 1050,-125.18 1044,-119.18 1044,-113.18 1044,-113.18 1044,-101.18 1044,-101.18 1044,-95.18 1050,-89.18 1056,-89.18 1056,-89.18 1170,-89.18 1170,-89.18 1176,-89.18 1182,-95.18 1182,-101.18 1182,-101.18 1182,-113.18 1182,-113.18 1182,-119.18 1176,-125.18 1170,-125.18"/>
<text text-anchor="middle" x="1113" y="-104.98" font-family="Arial" font-size="9.00">Source package + publication</text>
</g>
<!-- H&#45;&gt;O -->
<g id="edge11" class="edge">
<title>H&#45;&gt;O</title>
<path fill="none" stroke="black" d="M1008.19,-107.18C1016.31,-107.18 1025.06,-107.18 1033.91,-107.18"/>
<polygon fill="black" stroke="black" points="1033.93,-110.68 1043.93,-107.18 1033.93,-103.68 1033.93,-110.68"/>
</g>
<!-- F -->
<g id="node12" class="node">
<title>F</title>
<path fill="white" stroke="black" d="M1149.5,-71.18C1149.5,-71.18 1076.5,-71.18 1076.5,-71.18 1070.5,-71.18 1064.5,-65.18 1064.5,-59.18 1064.5,-59.18 1064.5,-47.18 1064.5,-47.18 1064.5,-41.18 1070.5,-35.18 1076.5,-35.18 1076.5,-35.18 1149.5,-35.18 1149.5,-35.18 1155.5,-35.18 1161.5,-41.18 1161.5,-47.18 1161.5,-47.18 1161.5,-59.18 1161.5,-59.18 1161.5,-65.18 1155.5,-71.18 1149.5,-71.18"/>
<text text-anchor="middle" x="1113" y="-50.98" font-family="Arial" font-size="9.00">Feedback evidence</text>
</g>
<!-- H&#45;&gt;F -->
<g id="edge14" class="edge">
<title>H&#45;&gt;F</title>
<path fill="none" stroke="black" d="M1008.19,-91.7C1022.73,-86.31 1039.3,-80.16 1054.87,-74.38"/>
<polygon fill="black" stroke="black" points="1056.25,-77.6 1064.4,-70.84 1053.81,-71.04 1056.25,-77.6"/>
</g>
<!-- F&#45;&gt;D -->
<g id="edge15" class="edge">
<title>F&#45;&gt;D</title>
<path fill="none" stroke="black" d="M1161.62,-70.95C1176.78,-76.6 1193.38,-82.8 1207.95,-88.23"/>
<polygon fill="black" stroke="black" points="1207.07,-91.64 1217.67,-91.86 1209.52,-85.08 1207.07,-91.64"/>
</g>
</g>
</svg>
